<?xml version="1.0" encoding="utf-8"?><svg viewBox="0 0 502.66 502.66" xmlns="http://www.w3.org/2000/svg" xmlns:xlink="http://www.w3.org/1999/xlink"><style>:root>svg{display:none}:root>svg:target{display:block}</style><svg viewBox="0 0 20 20" id="arrow-down" xmlns="http://www.w3.org/2000/svg"><path d="M4 6.291L3.291 7l.355.354L10 13.709l6.354-6.355.355-.354L16 6.291l-.354.355L10 12.291 4.354 6.646 4 6.291z"/></svg><svg viewBox="0 0 64 64" id="arrow-up" xmlns="http://www.w3.org/2000/svg"><path d="M45.7 38.1l-2 2L32 28.4 20.3 40.1l-2-2L32 24.4l13.7 13.7"/></svg><svg viewBox="0 0 502.664 502.664" id="icon" xmlns="http://www.w3.org/2000/svg"><path d="M153.821 358.226L0 274.337v-46.463l153.821-83.414v54.574L46.636 250.523l107.185 53.431v54.272zm26.273 29.358L282.103 115.08h32.227L212.084 387.584h-31.99zm168.749-29.358v-54.272l107.164-52.999-107.164-52.59v-53.927l153.821 83.522v46.183l-153.821 84.083z"/></svg></svg>